<svg xmlns="http://www.w3.org/2000/svg" viewBox="0 0 395.52 177.27"><defs><style>.cls-1{fill:#0023ff;}</style></defs><g id="Layer_2" data-name="Layer 2"><g id="icon-0"><path id="o-0" class="cls-1" d="M155.45,0h0c1.64,0,3,1.77,3,4V173.31c0,2.19-1.33,4-3,4h0c-1.64,0-3-1.77-3-4V4C152.47,1.77,153.81,0,155.45,0Z"/><g id="text-0"><path class="cls-1" d="M174.52,5.25l47.55-.09-.43,18.5-13,.51-3.31,41.37-18.42.95L187,25.14l-13,.7Zm50.3,2.09L248,6.11l-4.81,59.43-18.4.95ZM295,3.93h23.48l-4,64-19.89.88.16-33.76-9,27.22h-7.69L271.19,38l-.09,28.27-20.16.6.88-60.29,22.42-.87,8.9,28.88Zm27.75.69H363q-.27,4.11-.48,8.13c-.14,2.67-.34,5.38-.57,8.12h0l-18.5.94L343,27.32h13l-1,13.52L342,41.27l-.43,6.38H360c-.17,3.2-.36,6.37-.55,9.53s-.36,6.32-.5,9.49h0l-37.6.87Z"/><path class="cls-1" d="M220.64,115.39h0a24.68,24.68,0,0,1-2.08,10.46,20.72,20.72,0,0,1-5.68,7.43,24.16,24.16,0,0,1-8.42,4.45,35,35,0,0,1-10.36,1.48h0a21.59,21.59,0,0,1-4.68-.57,53.44,53.44,0,0,1-5.18-1.41q-2.61-.85-5-1.82t-4.29-1.86h0l1.91-18a30.83,30.83,0,0,0,8.24,3.38,35.53,35.53,0,0,0,8.86,1.16h0c.56,0,1.23,0,2-.07a8.89,8.89,0,0,0,2.23-.39,4.75,4.75,0,0,0,1.83-1,2.33,2.33,0,0,0,.73-1.87h0a2,2,0,0,0-.52-1.41,3.76,3.76,0,0,0-1.36-1,7.47,7.47,0,0,0-1.87-.55c-.69-.13-1.37-.23-2-.29s-1.3-.09-1.88-.09h-1.41a17.27,17.27,0,0,1-6.82-1.3,15.61,15.61,0,0,1-5.27-3.65,16.84,16.84,0,0,1-3.44-5.54,19.52,19.52,0,0,1-1.21-7h0A20.08,20.08,0,0,1,177,86.8a21.63,21.63,0,0,1,5.54-6.93,25,25,0,0,1,8-4.39A28.58,28.58,0,0,1,199.78,74h0c1.42,0,2.89,0,4.4.14s3,.29,4.52.55,3,.6,4.38,1a26.68,26.68,0,0,1,4,1.52h0L215.47,94.9a53.06,53.06,0,0,0-6.2-1.68,31.29,31.29,0,0,0-6.36-.68h0l-1.45,0c-.6,0-1.23,0-1.87.12s-1.33.2-2,.34a8.35,8.35,0,0,0-1.79.59,3.17,3.17,0,0,0-1.25,1A2.13,2.13,0,0,0,194.1,96h0a2.13,2.13,0,0,0,.72,1.56,4.6,4.6,0,0,0,1.75.91,13.16,13.16,0,0,0,2.36.46c.85.09,1.71.14,2.55.15s1.63,0,2.36,0a13.21,13.21,0,0,1,1.79.07h0a17.71,17.71,0,0,1,6.27,1.48,14.82,14.82,0,0,1,4.73,3.36,14,14,0,0,1,3,5A18.79,18.79,0,0,1,220.64,115.39Zm53.12-39,1.39,62.21-21.8,1-.17-20.16H243.13l-.6,19.11H223l1.66-61.35,20.76,1-1.3,31.32h9.68l.09-33.68Zm5.9,2,23.21-1.24-4.81,59.43-18.4,1ZM307,75.69h40.22c-.17,2.74-.34,5.45-.48,8.13s-.33,5.37-.57,8.11h0l-18.49.95v5.5H343.7l-.88,13.53-15.27.43.09,25.84-22.07.43Zm41,.62,47.55-.08-.43,18.49-13,.52-3.3,41.36-18.43,1,.09-41.35-13,.7Z"/></g><path id="text-1" class="cls-1" d="M177.43,174.63h3.06a4.47,4.47,0,0,0,1.53-.26,3,3,0,0,0,1.2-.82,4.13,4.13,0,0,0,.78-1.44,7,7,0,0,0,.28-2.13h0a7,7,0,0,0-.28-2.13,4.09,4.09,0,0,0-.78-1.45,3.18,3.18,0,0,0-1.2-.82,4.47,4.47,0,0,0-1.53-.25h-3.06Zm3.06,1.71H174V159.21h3.43v4.41h3.06a9.9,9.9,0,0,1,3.07.44,6.61,6.61,0,0,1,2.36,1.27,5.73,5.73,0,0,1,1.51,2A6.46,6.46,0,0,1,188,170h0a6.38,6.38,0,0,1-.52,2.64,5.86,5.86,0,0,1-1.51,2,6.77,6.77,0,0,1-2.36,1.27,10.21,10.21,0,0,1-3.07.44Zm17.62-1.22h0a5.9,5.9,0,0,0,2.23-.42,9.05,9.05,0,0,0,2-1.17h0l1,1.46a5.76,5.76,0,0,1-1.1.76,7,7,0,0,1-1.34.57,10.29,10.29,0,0,1-1.5.38,10.5,10.5,0,0,1-1.57.13h0a10.56,10.56,0,0,1-3.17-.45,6.8,6.8,0,0,1-2.43-1.33,5.9,5.9,0,0,1-1.56-2.14,7.4,7.4,0,0,1-.55-2.93h0a7.69,7.69,0,0,1,.53-2.93,6.07,6.07,0,0,1,1.46-2.15,6.32,6.32,0,0,1,2.25-1.32,8.62,8.62,0,0,1,2.86-.45h0a8.32,8.32,0,0,1,2.76.44,6.52,6.52,0,0,1,2.26,1.28,6.17,6.17,0,0,1,1.51,2,6.27,6.27,0,0,1,.57,2.72h0v1.71H193.9a4.28,4.28,0,0,0,1.4,2.91A4.38,4.38,0,0,0,198.11,175.12Zm-.86-10.4h0a3.25,3.25,0,0,0-1.32.27,2.63,2.63,0,0,0-1.07.85,4.78,4.78,0,0,0-.73,1.52,8.42,8.42,0,0,0-.31,2.25h6.85a7.2,7.2,0,0,0-.29-2.2,4.57,4.57,0,0,0-.77-1.53,2.94,2.94,0,0,0-1.1-.88A3,3,0,0,0,197.25,164.72Zm22-.86v12.48h-3.43V163.86Zm.12-3.3h0a1.86,1.86,0,0,1-.5,1.28,1.72,1.72,0,0,1-1.34.55h0a1.71,1.71,0,0,1-1.33-.55,1.86,1.86,0,0,1-.5-1.28h0a1.88,1.88,0,0,1,.5-1.29,1.71,1.71,0,0,1,1.33-.55h0a1.74,1.74,0,0,1,1.33.55A1.85,1.85,0,0,1,219.39,160.56Zm16.88,8.07v7.71h-3.42v-7.71a3.23,3.23,0,0,0-.88-2.53,3.74,3.74,0,0,0-2.55-.77h-3.18v11h-3.43V163.62h6.61a8.65,8.65,0,0,1,5.18,1.25,4.4,4.4,0,0,1,1.67,3.76Zm13,3.06v-6.36h-2.32v-1.71h2.32V159.7h3.43v3.92h3.79v1.71h-3.79v6.36a5.52,5.52,0,0,0,.2,1.58,2.92,2.92,0,0,0,.57,1,2.18,2.18,0,0,0,.82.6,2.49,2.49,0,0,0,1,.2h0a4.28,4.28,0,0,0,1.42-.24,6.28,6.28,0,0,0,1.15-.5h0l.73,1.59a8.05,8.05,0,0,1-1.68.61,7.07,7.07,0,0,1-1.87.25h0a6.11,6.11,0,0,1-4.26-1.37,4.89,4.89,0,0,1-1.49-3.77Zm14.8-7.83v12.48h-3.42V163.86Zm.12-3.3h0a1.81,1.81,0,0,1-.5,1.28,1.7,1.7,0,0,1-1.33.55h0a1.69,1.69,0,0,1-1.33-.55,1.82,1.82,0,0,1-.51-1.28h0a1.85,1.85,0,0,1,.51-1.29,1.69,1.69,0,0,1,1.33-.55h0a1.71,1.71,0,0,1,1.32.55A1.85,1.85,0,0,1,264.16,160.56Zm3.43,15.78V163.62h12.72a8.63,8.63,0,0,1,5.18,1.25,4.4,4.4,0,0,1,1.67,3.76h0v7.71h-3.42v-7.71a3.19,3.19,0,0,0-.88-2.53,3.74,3.74,0,0,0-2.55-.77h-1.22v11h-3.43v-11H271v11Zm30.22-1.22h0a6,6,0,0,0,2.24-.42,9.21,9.21,0,0,0,2-1.17h0l1,1.46a5.68,5.68,0,0,1-1.09.76,7.11,7.11,0,0,1-1.35.57,9.45,9.45,0,0,1-3.07.51h0a10.6,10.6,0,0,1-3.17-.45,6.8,6.8,0,0,1-2.43-1.33,5.9,5.9,0,0,1-1.56-2.14,7.4,7.4,0,0,1-.54-2.93h0a7.69,7.69,0,0,1,.52-2.93,6,6,0,0,1,1.47-2.15,6.27,6.27,0,0,1,2.24-1.32,8.67,8.67,0,0,1,2.86-.45h0a8.42,8.42,0,0,1,2.77.44,6.57,6.57,0,0,1,2.25,1.28,6.34,6.34,0,0,1,1.52,2,6.42,6.42,0,0,1,.56,2.72h0v1.71H293.6a4.32,4.32,0,0,0,1.4,2.91A4.39,4.39,0,0,0,297.81,175.12Zm-.86-10.4h0a3.25,3.25,0,0,0-1.32.27,2.7,2.7,0,0,0-1.07.85,4.78,4.78,0,0,0-.73,1.52,8.06,8.06,0,0,0-.3,2.25h6.85a7.18,7.18,0,0,0-.3-2.2,4.57,4.57,0,0,0-.77-1.53,2.86,2.86,0,0,0-1.1-.88A3,3,0,0,0,297,164.72Z"/><path class="cls-1" d="M75.08,25.48a2.83,2.83,0,0,0-.41,0c-3.64,0-6.16,2.95-6.16,6.59s1.39,6.5,6.87,6.58v0c26,.35,48.76,22.57,48.76,49.84a50.36,50.36,0,0,1-50.06,50.17c-26.24,0-48-19.79-49.93-45.8H35.72L17.86,63.15,0,92.85H11A63,63,0,1,0,75.08,25.48Z"/><path class="cls-1" d="M74.08,120.49a4,4,0,1,1-4,4A4,4,0,0,1,74.08,120.49Z"/><path class="cls-1" d="M100.21,60.72a4,4,0,1,1-3.94,4A4,4,0,0,1,100.21,60.72Z"/><path class="cls-1" d="M100.21,108.15a4,4,0,1,1-3.94,4A4,4,0,0,1,100.21,108.15Z"/><path class="cls-1" d="M109,84.88a4,4,0,1,1-3.94,4A4,4,0,0,1,109,84.88Z"/><path class="cls-1" d="M80.86,56.17a5.72,5.72,0,0,0-5.59-5.76h-1.2a5.67,5.67,0,0,0-5.53,5.76V89.31l-16.23,16.2a6.24,6.24,0,0,0,0,8.67,6.08,6.08,0,0,0,8.65,0L78.88,96.24c.14-.15.25-.3.39-.44a5.64,5.64,0,0,0,1.58-3.92V56.17Z"/></g></g></svg>